<svg xmlns="http://www.w3.org/2000/svg" viewBox="0 0 1200 340" preserveAspectRatio="none"><g fill="none" stroke="#FAFAF8"><path d="M460.0 0 A 140 140 0 0 0 740.0 0" stroke-opacity="0.24" stroke-width="1.5"/><path d="M376.0 0 A 224 224 0 0 0 824.0 0" stroke-opacity="0.225" stroke-width="1"/><path d="M292.0 0 A 308 308 0 0 0 908.0 0" stroke-opacity="0.21" stroke-width="1"/><path d="M208.0 0 A 392 392 0 0 0 992.0 0" stroke-opacity="0.195" stroke-width="1.5"/><path d="M124.0 0 A 476 476 0 0 0 1076.0 0" stroke-opacity="0.18" stroke-width="1"/><path d="M40.0 0 A 560 560 0 0 0 1160.0 0" stroke-opacity="0.165" stroke-width="1"/><path d="M-44.0 0 A 644 644 0 0 0 1244.0 0" stroke-opacity="0.15" stroke-width="1.5"/><path d="M-128.0 0 A 728 728 0 0 0 1328.0 0" stroke-opacity="0.135" stroke-width="1"/><path d="M-212.0 0 A 812 812 0 0 0 1412.0 0" stroke-opacity="0.12" stroke-width="1"/><path d="M-296.0 0 A 896 896 0 0 0 1496.0 0" stroke-opacity="0.105" stroke-width="1.5"/><path d="M-380.0 0 A 980 980 0 0 0 1580.0 0" stroke-opacity="0.09" stroke-width="1"/></g></svg>