<?xml version="1.0"?><svg xmlns="http://www.w3.org/2000/svg" viewBox="0 0 4096 4096">
  <path fill="#99CC66" d="M1612.47,2988.96l1384.27-1384.27c139.35-139.35,139.35-366.08,0-505.42-67.5-67.5-157.25-104.68-252.72-104.68s-185.2,37.18-252.7,104.68l-1384.28,1384.26c-67.5,67.51-104.68,157.26-104.68,252.71s37.18,185.21,104.68,252.72c67.49,67.49,157.24,104.67,252.71,104.67s185.21-37.18,252.71-104.67"></path>
  <path fill="#99CC66" d="M496.31,2423.49L2423.48,496.31c157.09-157.09,365.95-243.6,588.1-243.6,7.88,0,15.69.36,23.53.57C2742.35,91.91,2405.93,0,2048,0,916.92,0,0,916.92,0,2048c0,357.92,91.91,694.34,253.28,987.11-.22-7.84-.57-15.65-.57-23.52,0-222.16,86.51-431.01,243.6-588.1"></path>
  <path fill="#99CC66" d="M3842.32,1060.18c6.39,220.99-74.34,444.04-242.63,612.34l-1927.17,1927.18c-157.09,157.09-365.95,243.6-588.11,243.6-7.87,0-15.68-.36-23.52-.57,292.77,161.37,629.19,253.28,987.11,253.28,1131.08,0,2048-916.92,2048-2048,0-358.22-92.07-694.89-253.68-987.82"></path>
  <path fill="#FAFAF8" d="M1607.03,3534.2l1927.17-1927.18c288.16-288.17,288.16-757.05,0-1045.22-139.59-139.6-325.2-216.47-522.61-216.47s-383.01,76.88-522.61,216.47l-1927.17,1927.18c-139.6,139.59-216.48,325.19-216.48,522.61s76.88,383.01,216.47,522.61c139.61,139.6,325.21,216.48,522.61,216.48s383.02-76.88,522.62-216.48M909.75,2736.25c0-120.2,46.81-233.21,131.8-318.21l1384.28-1384.27c84.99-84.99,198-131.8,318.19-131.8s233.21,46.81,318.21,131.8c175.45,175.46,175.45,460.95,0,636.41l-1384.27,1384.27c-85,85-198.01,131.8-318.21,131.8s-233.21-46.8-318.2-131.8c-85-84.99-131.81-198-131.81-318.2"></path>
</svg>